<svg version="1.1" class="wheel-rotor-shadow-bg" xmlns="http://www.w3.org/2000/svg" xmlns:xlink="http://www.w3.org/1999/xlink" x="0px" y="0px" viewBox="-73.5 634 476 476" enable-background="new -73.5 634 476 476" xml:space="preserve"><path fill="#000" d="M387.409,938.95c-0.268-0.089-0.524-0.177-0.787-0.177
                                            c13.021-43.188,13.286-89.875,0.088-133.938c0.262,0,0.438-0.088,0.699-0.176c2.534-0.787,3.846-3.496,3.059-6.033
                                            c-0.786-2.535-3.496-3.846-6.027-3.06c-0.266,0.086-0.438,0.175-0.61,0.263c-7.344-21.07-17.83-41.44-31.554-60.5
                                            c-13.726-18.886-29.721-35.06-47.373-48.522c0.087-0.177,0.262-0.263,0.35-0.438c1.572-2.099,1.051-5.07-1.05-6.646
                                            c-2.097-1.572-5.067-1.05-6.646,1.051c-0.087,0.177-0.175,0.351-0.264,0.438c-37.932-26.402-82.687-40.654-127.961-41.617
                                            c0.088-0.262,0.088-0.609,0.088-0.873c0-2.623-2.099-4.721-4.72-4.721s-4.721,2.098-4.721,4.721c0,0.264,0,0.611,0.088,0.873
                                            c-44.313,0.875-88.89,14.43-127.872,41.617c-0.088-0.262-0.263-0.521-0.438-0.787c-1.573-2.098-4.545-2.623-6.643-1.049
                                            c-2.099,1.574-2.623,4.545-1.049,6.646c0.175,0.262,0.35,0.438,0.611,0.697c-37.844,28.68-64.501,66.885-79.012,108.764
                                            c-0.087-0.086-0.262-0.086-0.35-0.176c-2.535-0.787-5.156,0.523-6.03,3.061c-0.787,2.535,0.524,5.158,3.06,6.033
                                            c0.088,0,0.263,0.088,0.349,0.088c-13.372,43.625-13.722,90.486-0.261,134.727c-0.175,0-0.35,0.088-0.524,0.176
                                            c-2.536,0.787-3.847,3.496-3.06,6.031c0.786,2.537,3.496,3.85,6.03,3.062c0.176-0.088,0.351-0.088,0.525-0.178
                                            c7.342,20.982,17.743,41.18,31.465,60.062c13.637,18.799,29.631,34.973,47.199,48.35c-0.088,0.09-0.263,0.268-0.35,0.354
                                            c-1.574,2.1-1.05,5.07,1.049,6.645s5.069,1.05,6.643-1.051c0.088-0.174,0.175-0.262,0.263-0.438
                                            c37.846,26.403,82.423,40.653,127.698,41.704c0,0.087,0,0.264,0,0.352c0,2.621,2.098,4.721,4.72,4.721
                                            c2.623,0,4.722-2.1,4.722-4.721c0-0.088,0-0.264,0-0.352c44.49-0.786,89.064-14.34,128.137-41.615
                                            c0.087,0.262,0.262,0.523,0.438,0.787c1.572,2.098,4.546,2.622,6.646,1.049c2.099-1.574,2.622-4.547,1.05-6.646
                                            c-0.175-0.264-0.35-0.438-0.611-0.698c37.936-28.765,64.682-67.06,79.104-109.11c0.264,0.088,0.521,0.264,0.787,0.353
                                            c2.531,0.787,5.153-0.523,6.027-3.062C391.258,942.445,389.856,939.823,387.409,938.95z"></path></svg>