<svg version="1.1" class="soundest-form-wof-pointer-bg" xmlns="http://www.w3.org/2000/svg" xmlns:xlink="http://www.w3.org/1999/xlink" x="0px" y="0px" viewBox="0 0 66 116" enable-background="new 0 0 66 116" xml:space="preserve"><path class="soundest-form-wof-pointer-main-padding" fill="#FFFFFF" d="M66,33C66,14.774,51.227,0,33,0C14.775,0,0,14.774,0,33c0,11.604,5.994,21.801,15.05,27.685h-0.015
                            L24.5,107.5c0,4.694,3.806,8.5,8.5,8.5s8.5-3.806,8.5-8.5l9.466-46.815h-0.015C60.007,54.801,66,44.604,66,33z"></path><path class="soundest-form-wof-pointer-main-body" fill="#C13A4A" d="M57.5,33C57.5,19.469,46.531,8.5,33,8.5S8.5,19.469,8.5,33c0,9.17,5.041,17.158,12.501,21.358H21l7,52.392
                            c0,2.762,2.238,5,5,5s5-2.238,5-5l7-52.391h-0.002C52.458,50.16,57.5,42.171,57.5,33z"></path></svg>