<?xml version="1.0" standalone="no"?>
<!DOCTYPE svg PUBLIC "-//W3C//DTD SVG 20010904//EN"
 "http://www.w3.org/TR/2001/REC-SVG-20010904/DTD/svg10.dtd">
<svg version="1.0" xmlns="http://www.w3.org/2000/svg"
 width="256.000000pt" height="256.000000pt" viewBox="0 0 256.000000 256.000000"
 preserveAspectRatio="xMidYMid meet">
<metadata>
Created by potrace 1.11, written by Peter Selinger 2001-2013
</metadata>
<g transform="translate(0.000000,256.000000) scale(0.100000,-0.100000)"
fill="#000000" stroke="none">
<path d="M1342 2434 c-45 -32 -99 -124 -250 -429 -86 -173 -109 -215 -131
-238 -26 -26 -113 -47 -271 -63 -25 -3 -56 -6 -70 -9 -14 -2 -52 -7 -85 -11
-33 -3 -67 -8 -75 -9 -8 -2 -40 -6 -70 -10 -64 -8 -67 -9 -139 -29 -30 -8 -63
-24 -74 -35 -17 -16 -18 -24 -8 -51 13 -39 85 -121 222 -255 184 -180 271
-268 285 -291 8 -12 15 -41 15 -65 0 -53 -3 -69 -41 -264 -11 -55 -22 -116
-25 -135 -3 -19 -8 -42 -10 -50 -2 -8 -7 -37 -11 -65 -3 -27 -8 -59 -10 -70
-9 -44 -6 -143 5 -163 22 -41 109 -15 326 96 61 31 112 59 115 62 20 20 260
132 294 136 39 6 55 0 172 -61 71 -36 144 -75 162 -86 81 -47 264 -141 304
-155 23 -8 59 -17 79 -20 35 -5 38 -4 49 31 11 34 9 144 -4 215 -2 14 -7 43
-10 65 -3 22 -8 51 -11 65 -6 28 -36 197 -40 220 -1 8 -5 35 -9 60 -25 156
-23 160 180 349 244 228 318 305 341 360 13 30 12 35 -3 52 -19 21 -112 52
-187 63 -27 4 -59 9 -70 12 -23 4 -47 8 -130 19 -27 4 -58 8 -70 11 -11 2 -41
6 -66 9 -46 5 -157 24 -176 29 -5 2 -23 6 -40 11 -32 8 -51 25 -74 66 -20 34
-111 218 -111 224 0 17 -156 318 -185 357 -44 60 -65 72 -93 52z"/>
</g>
</svg>
